<?xml version="1.0" encoding="utf-8"?>
<svg xmlns="http://www.w3.org/2000/svg"
	xmlns:xlink="http://www.w3.org/1999/xlink"
	width="26px" height="30px" viewBox="0 0 26 30">
<path fillRule="evenodd" d="M 24.13 30C 24.13 30 1.87 30 1.87 30 0.84 30 0 29.09 0 27.97 0 27.97 0 2.03 0 2.03 0 0.91 0.84-0 1.87-0 1.87-0 24.13-0 24.13-0 25.16-0 26 0.91 26 2.03 26 2.03 26 27.97 26 27.97 26 29.09 25.16 30 24.13 30ZM 25 2C 25 1.72 24.26 1 24 1 24 1 2 1 2 1 1.74 1 1 1.72 1 2 1 2 1 28 1 28 1 28.28 1.74 29 2 29 2 29 24 29 24 29 24.26 29 25 28.28 25 28 25 28 25 2 25 2ZM 20.61 10.98C 20.61 10.98 5.39 10.98 5.39 10.98 4.36 10.98 4 10.12 4 9 4 9 4 5 4 5 4 3.88 4.36 2.87 5.39 2.87 5.39 2.87 20.61 2.87 20.61 2.87 21.64 2.87 22 3.88 22 5 22 5 22 9 22 9 22 10.12 21.64 10.98 20.61 10.98ZM 21 5C 21 4.72 20.26 4 20 4 20 4 6 4 6 4 5.74 4 5 4.72 5 5 5 5 5 9 5 9 5 9.28 5.74 10 6 10 6 10 20 10 20 10 20.26 10 21 9.28 21 9 21 9 21 5 21 5ZM 4.75 15.75C 4.75 15.75 6.89 15.75 6.89 15.75 6.89 15.75 6.89 13.7 6.89 13.7 6.89 13.31 7.22 12.99 7.63 12.99 8.03 12.99 8.36 13.31 8.36 13.7 8.36 13.7 8.36 15.75 8.36 15.75 8.36 15.75 10.51 15.75 10.51 15.75 10.91 15.75 11.24 16.07 11.24 16.46 11.24 16.85 10.91 17.16 10.51 17.16 10.51 17.16 8.36 17.16 8.36 17.16 8.36 17.16 8.36 19.22 8.36 19.22 8.36 19.61 8.03 19.92 7.63 19.92 7.22 19.92 6.89 19.61 6.89 19.22 6.89 19.22 6.89 17.16 6.89 17.16 6.89 17.16 4.75 17.16 4.75 17.16 4.34 17.16 4.01 16.85 4.01 16.46 4.01 16.07 4.34 15.75 4.75 15.75ZM 4.82 21.21C 5.1 20.93 5.57 20.93 5.86 21.21 5.86 21.21 7.2 22.5 7.2 22.5 7.2 22.5 8.54 21.21 8.54 21.21 8.83 20.93 9.3 20.93 9.59 21.21 9.87 21.49 9.87 21.93 9.59 22.21 9.59 22.21 8.24 23.5 8.24 23.5 8.24 23.5 9.59 24.78 9.59 24.78 9.87 25.06 9.87 25.51 9.59 25.78 9.44 25.92 9.25 25.99 9.07 25.99 8.88 25.99 8.69 25.92 8.54 25.78 8.54 25.78 7.2 24.49 7.2 24.49 7.2 24.49 5.86 25.78 5.86 25.78 5.71 25.92 5.52 25.99 5.34 25.99 5.15 25.99 4.96 25.92 4.82 25.78 4.53 25.51 4.53 25.06 4.82 24.78 4.82 24.78 6.16 23.5 6.16 23.5 6.16 23.5 4.82 22.21 4.82 22.21 4.53 21.93 4.53 21.49 4.82 21.21ZM 15.09 15.5C 15.09 15.5 21.26 15.5 21.26 15.5 21.66 15.5 21.99 15.82 21.99 16.21 21.99 16.6 21.66 16.91 21.26 16.91 21.26 16.91 15.09 16.91 15.09 16.91 14.69 16.91 14.36 16.6 14.36 16.21 14.36 15.82 14.69 15.5 15.09 15.5ZM 17.59 20C 18.04 20.43 18.04 21.12 17.59 21.55 17.14 21.99 16.41 21.99 15.96 21.55 15.51 21.12 15.51 20.43 15.96 20 16.41 19.57 17.14 19.57 17.59 20ZM 19.93 20.27C 20.22 19.99 20.68 19.99 20.97 20.27 21.26 20.54 21.26 20.99 20.97 21.26 20.97 21.26 17.06 25.01 17.06 25.01 16.92 25.15 16.73 25.22 16.54 25.22 16.35 25.22 16.16 25.15 16.02 25.01 15.73 24.74 15.73 24.29 16.02 24.02 16.02 24.02 19.93 20.27 19.93 20.27ZM 21.2 23.45C 21.65 23.88 21.65 24.58 21.2 25.01 20.75 25.44 20.02 25.44 19.57 25.01 19.12 24.58 19.12 23.88 19.57 23.45 20.02 23.02 20.75 23.02 21.2 23.45Z" fill="rgb(193,9,59)"/></svg>