<?xml version="1.0" encoding="utf-8"?>
<svg xmlns="http://www.w3.org/2000/svg"
	xmlns:xlink="http://www.w3.org/1999/xlink"
	width="21px" height="30px" viewBox="0 0 21 30">
<path fillRule="evenodd" d="M 19.05 30C 19.05 30 1.95 30 1.95 30 0.87 30 0 29.12 0 28.03 0 28.03 0 7.84 0 7.84 0 6.75 0.87 5.86 1.95 5.86 2.28 5.86 2.55 6.14 2.55 6.47 2.55 6.81 2.28 7.08 1.95 7.08 1.53 7.08 1 7.58 1 8 1 8 1 28 1 28 1 28.42 1.59 29 2 29 2 29 19 29 19 29 19.41 29 20 28.42 20 28 20 28 20 8 20 8 20 7.58 19.47 7.08 19.05 7.08 18.72 7.08 18.45 6.81 18.45 6.47 18.45 6.14 18.72 5.86 19.05 5.86 20.13 5.86 21 6.75 21 7.84 21 7.84 21 28.03 21 28.03 21 29.12 20.13 30 19.05 30ZM 4.63 13C 4.63 13 16.37 13 16.37 13 16.73 13 17.02 13.22 17.02 13.5 17.02 13.77 16.73 14 16.37 14 16.37 14 4.63 14 4.63 14 4.27 14 3.98 13.77 3.98 13.5 3.98 13.22 4.27 13 4.63 13ZM 4.63 18.99C 4.63 18.99 16.37 18.99 16.37 18.99 16.73 18.99 17.02 19.21 17.02 19.49 17.02 19.76 16.73 19.99 16.37 19.99 16.37 19.99 4.63 19.99 4.63 19.99 4.27 19.99 3.98 19.76 3.98 19.49 3.98 19.21 4.27 18.99 4.63 18.99ZM 4.63 15.99C 4.63 15.99 16.37 15.99 16.37 15.99 16.73 15.99 17.02 16.22 17.02 16.49 17.02 16.77 16.73 16.99 16.37 16.99 16.37 16.99 4.63 16.99 4.63 16.99 4.27 16.99 3.98 16.77 3.98 16.49 3.98 16.22 4.27 15.99 4.63 15.99ZM 17.38 8.99C 17.38 8.99 3.62 8.99 3.62 8.99 3.28 8.99 2.99 8.72 2.99 8.39 2.99 8.39 2.99 7.77 2.99 7.77 2.99 5.48 4.87 3.62 7.18 3.62 7.18 3.62 7.46 3.62 7.46 3.62 7.45 3.55 7.45 3.48 7.45 3.41 7.45 0.9 9.03-0 10.5-0 11.98-0 13.55 0.9 13.55 3.41 13.55 3.48 13.55 3.55 13.55 3.62 13.55 3.62 13.82 3.62 13.82 3.62 16.13 3.62 18.01 5.48 18.01 7.77 18.01 7.77 18.01 8.39 18.01 8.39 18.01 8.72 17.73 8.99 17.38 8.99ZM 16.75 7.77C 16.75 6.15 15.44 4.83 13.82 4.83 13.82 4.83 12.86 4.83 12.86 4.83 12.67 4.83 12.5 4.76 12.38 4.62 12.26 4.49 12.21 4.31 12.24 4.14 12.28 3.89 12.3 3.65 12.3 3.41 12.3 1.99 11.66 1.21 10.5 1.21 9.34 1.21 8.71 1.99 8.71 3.41 8.71 3.65 8.73 3.89 8.77 4.14 8.79 4.31 8.74 4.49 8.62 4.62 8.5 4.76 8.33 4.83 8.15 4.83 8.15 4.83 7.18 4.83 7.18 4.83 5.56 4.83 4.25 6.15 4.25 7.77 4.25 7.77 4 8 4 8 4 8 17 8 17 8 17 8 16.75 7.77 16.75 7.77Z" fill="rgb(193,9,59)"/></svg>