<?xml version="1.0" encoding="utf-8"?>
<svg xmlns="http://www.w3.org/2000/svg"
	xmlns:xlink="http://www.w3.org/1999/xlink"
	width="33px" height="30px" viewBox="0 0 33 30">
<path fillRule="evenodd" d="M 32.88 29.7C 32.76 29.89 32.54 30 32.32 30 32.32 30 0.7 30 0.7 30 0.47 30 0.26 29.89 0.13 29.7 0 29.51-0.02 29.27 0.06 29.06 0.06 29.06 4.76 17.45 4.76 17.45 4.86 17.19 4.72 17 5 17 5 17 10 17 10 17 10.38 17 10.38 17.33 10.38 17.71 10.38 18.09 10.38 18 10 18 10 18 6 18 6 18 6 18 2 29 2 29 2 29 31 29 31 29 31 29 27 18 27 18 27 18 24 18 24 18 23.62 18 22.63 18.09 22.63 17.71 22.63 17.33 22.62 17 23 17 23 17 28 17 28 17 28.28 17 28.15 17.19 28.25 17.45 28.25 17.45 32.95 29.06 32.95 29.06 33.04 29.27 33.01 29.51 32.88 29.7ZM 16.51 22.66C 16.31 22.66 16.12 22.57 15.99 22.42 15.66 22.04 8.02 13.02 8.02 8.5 8.02 3.81 11.83-0 16.51-0 21.19-0 24.99 3.81 24.99 8.5 24.99 13.02 17.35 22.04 17.03 22.42 16.9 22.57 16.71 22.66 16.51 22.66ZM 16.51 1.37C 12.58 1.37 9.39 4.57 9.39 8.5 9.39 11.59 14.12 18 16.51 20.9 18.89 18 23.62 11.59 23.62 8.5 23.62 4.57 20.43 1.37 16.51 1.37ZM 13.11 8.5C 13.11 6.63 14.63 5.1 16.51 5.1 18.38 5.1 19.91 6.63 19.91 8.5 19.91 10.38 18.38 11.91 16.51 11.91 14.63 11.91 13.11 10.38 13.11 8.5ZM 18.54 8.5C 18.54 7.38 17.63 6.47 16.51 6.47 15.39 6.47 14.48 7.38 14.48 8.5 14.48 9.63 15.39 10.54 16.51 10.54 17.63 10.54 18.54 9.63 18.54 8.5Z" fill="rgb(191,191,191)"/></svg>