<?xml version="1.0" encoding="utf-8"?>
<svg xmlns="http://www.w3.org/2000/svg"
	xmlns:xlink="http://www.w3.org/1999/xlink"
	width="36px" height="30px" viewBox="0 0 36 30">
<path fillRule="evenodd" d="M 31.9 24.88C 31.9 24.88 27.23 24.88 27.23 24.88 28.42 26.5 29.96 27.81 31.74 28.7 32.02 28.84 32.16 29.15 32.1 29.45 32.04 29.76 31.78 29.98 31.47 29.99 31.47 29.99 31.38 29.99 31.38 29.99 31.27 29.99 31.17 30 31.07 30 26.91 30 22.69 28.25 20 25 20 25 16 25 16 25 15.64 25 15.15 24.58 15.15 24.21 15.15 23.83 15.64 24 16 24 16 24 20 24 20 24 20.2 24 20.87 23.84 21 24 22.96 26.48 25.83 27.89 28.83 28.44 27.47 27.38 26.32 26.07 25.41 24.56 25.29 24.35 25.28 24.09 25.4 23.87 25.52 23.66 25.76 24 26 24 26 24 32 24 32 24 33.53 24 35 22.58 35 21 35 21 35 8 35 8 35 6.42 33.53 5 32 5 32 5 26 5 26 5 25.64 5 25.43 4.51 25.43 4.13 25.43 3.76 25.64 4 26 4 26 4 32 4 32 4 34.26 4 36 5.34 36 7.67 36 7.67 36 20.67 36 20.67 36 22.99 34.16 24.88 31.9 24.88ZM 20 21C 20 21 16 21 16 21 13.31 24.25 9.09 26.55 4.93 26.55 4.83 26.55 4.73 26.54 4.62 26.54 4.62 26.54 4.53 26.54 4.53 26.54 4.22 26.53 3.96 26.31 3.9 26 3.84 25.7 3.98 25.39 4.26 25.25 6.04 24.36 7.81 22.62 9 21 9 21 4 21 4 21 1.74 21 0 19.54 0 17.22 0 17.22 0 4.22 0 4.22 0 1.89 1.84 0 4.1 0 4.1 0 20.19 0 20.19 0 22.45 0 24 1.68 24 4 24 4 24 17 24 17 24 19.32 22.26 21 20 21ZM 23 4C 23 2.42 21.53 1 20 1 20 1 4 1 4 1 2.47 1 1 2.42 1 4 1 4 1 17 1 17 1 18.58 2.47 20 4 20 4 20 10 20 10 20 10.24 20 10.48 20.21 10.6 20.42 10.72 20.64 10.71 20.9 10.59 21.11 9.68 22.62 8.53 23.93 7.17 24.99 10.17 24.44 12.89 22.81 14.85 20.33 14.97 20.17 14.8 20 15 20 15 20 20 20 20 20 21.53 20 23 18.58 23 17 23 17 23 4 23 4ZM 19.34 14C 19.34 14 4.65 14 4.65 14 4.29 14 4 13.78 4 13.5 4 13.22 4.29 12.99 4.65 12.99 4.65 12.99 19.34 12.99 19.34 12.99 19.7 12.99 19.99 13.22 19.99 13.5 19.99 13.78 19.7 14 19.34 14ZM 19.34 10.99C 19.34 10.99 4.65 10.99 4.65 10.99 4.29 10.99 4 10.77 4 10.5 4 10.23 4.29 10.01 4.65 10.01 4.65 10.01 19.34 10.01 19.34 10.01 19.7 10.01 19.99 10.23 19.99 10.5 19.99 10.77 19.7 10.99 19.34 10.99ZM 19.34 8.01C 19.34 8.01 4.65 8.01 4.65 8.01 4.29 8.01 4 7.78 4 7.5 4 7.23 4.29 7 4.65 7 4.65 7 19.34 7 19.34 7 19.7 7 19.99 7.23 19.99 7.5 19.99 7.78 19.7 8.01 19.34 8.01Z" fill="rgb(193,9,59)"/></svg>